<svg width="18" height="17" viewBox="0 0 18 17" fill="none" xmlns="http://www.w3.org/2000/svg">
    <path d="M4.5 8.5C4.5 8.99415 4.90294 9.39474 5.4 9.39474H9.99045C10.4875 9.39474 10.8904 8.99415 10.8904 8.5C10.8904 8.00585 10.4875 7.60526 9.99045 7.60526H5.4C4.90294 7.60526 4.5 8.00585 4.5 8.5ZM4.5 4.92105C4.5 5.4152 4.90294 5.81579 5.4 5.81579H12.6C13.0971 5.81579 13.5 5.4152 13.5 4.92105C13.5 4.4269 13.0971 4.02632 12.6 4.02632H5.4C4.90294 4.02632 4.5 4.4269 4.5 4.92105Z" fill="#0176D3"/>
    <path d="M16.2 0H1.8C0.81 0 0 0.805263 0 1.78947V11.6137C0 12.5979 0.81 13.4032 1.8 13.4032H3.39302V14.9421C3.39302 15.6937 3.39301 16.1411 3.72601 16.5258C3.98701 16.83 4.37402 17 4.80602 17C4.84202 17 4.86901 17 4.90501 17C5.41801 16.9463 5.751 16.6063 6.246 16.0963L8.91002 13.4032H16.2C17.19 13.4032 18 12.5979 18 11.6137V1.78947C18 0.805263 17.19 0 16.2 0ZM16.2 11.6137H8.91002C8.42402 11.6137 7.97403 11.8016 7.62303 12.1505L5.18401 14.6111V13.4032C5.18401 12.4189 4.37401 11.6137 3.38401 11.6137H1.79105V1.78947H16.191V11.6137H16.2Z" fill="#0176D3"/>
</svg>
